<svg width="69" height="68" viewBox="0 0 69 68" fill="none" xmlns="http://www.w3.org/2000/svg">
<path d="M31.8563 9.51808C34.1238 7.7419 36.9581 9.21575 38.8477 10.8408C40.8506 12.3524 42.9291 14.0908 44.7431 15.867L45.0832 16.056C50.1423 20.6805 54.7022 25.8231 58.6881 31.3992C59.2927 32.3818 59.8218 33.4777 59.4817 34.7248C58.1968 37.9371 55.5892 40.5069 53.3217 43.3034C48.5134 48.6958 43.1558 53.572 37.336 57.8531C36.1267 58.6845 34.5395 59.4403 33.1412 58.7978C28.8708 56.5304 25.205 52.8646 21.5015 49.5012C16.9942 45.4212 12.9627 40.8446 9.48389 35.8586C8.9926 35.1783 8.84144 34.3469 8.84144 33.4021C9.29493 31.7015 10.4287 30.3033 11.5624 28.8672C15.6335 23.8254 20.135 19.1469 25.0161 14.8844L25.5452 14.4687C27.5859 12.6548 29.6644 11.0675 31.8185 9.51808M38.432 4.34068L35.9378 0.712727C35.5976 0.523771 35.2197 0.259232 34.8796 0.108067C34.1238 -0.194263 33.2924 0.18365 32.6877 0.674936L28.0772 6.68374C20.654 15.9902 11.9365 24.1859 2.19018 31.0213C1.43435 31.626 0.300616 32.1928 0.073869 33.1754C-0.19067 34.0446 0.300616 34.8004 0.829694 35.3295C8.69693 40.7414 15.9236 47.0299 22.3707 54.0739C23.5422 55.2833 24.487 56.4926 25.6207 57.6641C27.5481 60.1961 29.7778 62.7659 31.554 65.4869C32.1208 66.0915 32.1964 66.9985 33.0656 67.3009C33.7459 67.5276 34.5773 67.6788 35.2197 67.3009L35.8622 66.6584C43.9493 55.2774 53.8425 45.2949 65.1504 37.1057C66.2841 36.0853 68.4382 35.7452 68.476 33.8556C68.4345 33.4143 68.294 32.9881 68.065 32.6086C67.836 32.2291 67.5244 31.9061 67.1533 31.6637H66.9644C61.1282 27.6817 55.6753 23.165 50.6763 18.1723L45.0832 12.3524C42.8158 9.82041 40.5861 7.02386 38.4698 4.34068M32.6877 10.9164C34.993 9.32913 37.0715 11.521 38.8477 12.8059C45.8794 18.2782 52.09 24.7306 57.2898 31.9661C57.9322 32.8731 58.1968 34.3091 57.6677 35.3673C56.345 37.5214 54.6444 39.5243 52.9816 41.4895V41.6028C48.8995 46.1151 44.4912 50.3213 39.7925 54.1873C37.525 55.5856 35.4087 58.6467 32.461 56.7571C25.5653 51.6714 19.3096 45.771 13.8299 39.1842C12.9229 37.7103 11.4868 36.5388 10.8066 34.9138C9.93738 32.7219 11.9403 31.1347 13.0741 29.4341C18.5916 22.5938 25.5452 15.8292 32.6877 10.9164ZM34.1616 15.4513L33.5191 17.4164L30.3824 26.4486C31.1383 26.5241 32.1586 26.4486 32.9145 26.5241V26.5997L32.461 36.8034L32.5365 36.8789C33.5569 36.9923 34.804 37.0301 35.8244 36.8789V36.69L35.4087 26.8265L35.4843 26.4863L38.243 26.4486C36.8447 22.7828 35.522 19.1171 34.2371 15.4135L34.1616 15.4513ZM23.4666 29.4719C21.6905 30.3788 19.1207 31.7393 19.3852 34.1202C19.7631 35.4429 21.1992 36.3121 22.3329 36.8411C28.5685 39.5999 36.8825 39.6755 43.496 37.6348C45.0832 36.9923 47.2751 36.1231 47.5775 34.0824C47.5775 32.4574 45.8391 31.437 44.5542 30.7945V30.719C45.0076 30.53 45.4989 30.3411 45.9524 30.3411V30.2655C43.7605 29.8876 41.6064 29.3207 39.4901 28.7538C39.868 29.6986 40.1704 30.6434 40.5105 31.6637C41.1907 31.437 41.8332 31.2858 42.5134 31.2103C43.6472 31.626 45.2722 32.2684 45.4234 33.6667C45.5745 34.9894 44.1007 35.6318 43.1937 36.1609C38.2581 37.9096 32.9083 38.1204 27.8504 36.7656C26.4899 36.3121 24.4492 35.7452 24.2981 33.969C25.2806 31.6637 27.8504 31.1725 29.9667 30.5678C28.8708 29.8876 27.7748 29.2451 26.6789 28.4515C25.5452 28.5271 24.487 29.0184 23.4666 29.4719ZM32.3854 39.6377C32.1964 43.2657 32.1586 46.5913 31.8941 50.2192C33.3302 50.3326 34.9174 50.4838 36.429 50.257L36.0133 40.1668L35.9378 39.6755C34.7662 39.7133 33.6703 39.7511 32.3854 39.6377Z" fill="white"/>
</svg>
